<svg xmlns="http://www.w3.org/2000/svg" xmlns:xlink="http://www.w3.org/1999/xlink" width="1640" zoomAndPan="magnify" viewBox="0 0 1230 693.000001" height="924" preserveAspectRatio="xMidYMid meet" version="1.0"><defs><g/><clipPath id="623e8bfcd4"><path d="M 0.886719 0 L 1229.113281 0 L 1229.113281 692 L 0.886719 692 Z M 0.886719 0 " clip-rule="nonzero"/></clipPath><clipPath id="4150a115d2"><path d="M 0.886719 142.894531 L 1229.113281 142.894531 L 1229.113281 515.101562 L 0.886719 515.101562 Z M 0.886719 142.894531 " clip-rule="nonzero"/></clipPath><clipPath id="6077df21b0"><path d="M -10.03125 142.894531 L 1240.03125 142.894531 C 1257.816406 142.894531 1272.234375 157.3125 1272.234375 175.097656 L 1272.234375 482.898438 C 1272.234375 500.683594 1257.816406 515.101562 1240.03125 515.101562 L -10.03125 515.101562 C -27.816406 515.101562 -42.234375 500.683594 -42.234375 482.898438 L -42.234375 175.097656 C -42.234375 157.3125 -27.816406 142.894531 -10.03125 142.894531 " clip-rule="nonzero"/></clipPath><clipPath id="81f692a452"><path d="M 274 93.355469 L 771 93.355469 L 771 564.425781 L 274 564.425781 Z M 274 93.355469 " clip-rule="nonzero"/></clipPath></defs><g clip-path="url(#623e8bfcd4)"><path fill="#ffffff" d="M 0.886719 0 L 1229.113281 0 L 1229.113281 699.492188 L 0.886719 699.492188 Z M 0.886719 0 " fill-opacity="1" fill-rule="nonzero"/><path fill="#ffffff" d="M 0.886719 0 L 1229.113281 0 L 1229.113281 692 L 0.886719 692 Z M 0.886719 0 " fill-opacity="1" fill-rule="nonzero"/><path fill="#c77dff" d="M 0.886719 0 L 1229.113281 0 L 1229.113281 692 L 0.886719 692 Z M 0.886719 0 " fill-opacity="1" fill-rule="nonzero"/></g><g clip-path="url(#4150a115d2)"><g clip-path="url(#6077df21b0)"><path fill="#c77dff" d="M -42.234375 142.894531 L 1272.121094 142.894531 L 1272.121094 515.101562 L -42.234375 515.101562 Z M -42.234375 142.894531 " fill-opacity="1" fill-rule="nonzero"/></g></g><path fill="#ffffff" d="M 545.671875 180.632812 C 551.292969 180.605469 556.910156 180.777344 562.523438 181.148438 C 568.132812 181.519531 573.726562 182.085938 579.296875 182.847656 C 584.871094 183.613281 590.40625 184.570312 595.910156 185.722656 C 601.414062 186.875 606.871094 188.21875 612.28125 189.757812 C 617.691406 191.292969 623.039062 193.015625 628.328125 194.929688 C 633.617188 196.839844 638.832031 198.9375 643.972656 201.214844 C 649.113281 203.492188 654.167969 205.949219 659.136719 208.582031 C 664.105469 211.21875 668.972656 214.023438 673.742188 217 C 678.515625 219.976562 683.175781 223.113281 687.722656 226.417969 C 692.273438 229.722656 696.703125 233.183594 701.007812 236.796875 C 705.3125 240.414062 709.488281 244.175781 713.53125 248.082031 C 717.570312 251.992188 721.46875 256.035156 725.226562 260.21875 C 728.984375 264.402344 732.589844 268.710938 736.042969 273.148438 C 739.496094 277.582031 742.789062 282.132812 745.925781 286.800781 C 749.058594 291.46875 752.023438 296.242188 754.820312 301.117188 C 757.617188 305.992188 760.242188 310.960938 762.691406 316.023438 C 755.5625 330.722656 747 344.535156 737.003906 357.460938 C 727.007812 370.386719 715.792969 382.148438 703.355469 392.75 L 738.699219 427.433594 C 747.339844 419.832031 755.496094 411.746094 763.167969 403.171875 C 770.84375 394.597656 777.980469 385.597656 784.578125 376.175781 C 791.179688 366.75 797.195312 356.96875 802.628906 346.824219 C 808.0625 336.683594 812.875 326.257812 817.0625 315.542969 C 815.378906 311.289062 813.59375 307.074219 811.710938 302.90625 C 809.824219 298.734375 807.84375 294.609375 805.765625 290.53125 C 803.6875 286.453125 801.515625 282.429688 799.246094 278.453125 C 796.980469 274.476562 794.617188 270.558594 792.164062 266.695312 C 789.714844 262.832031 787.171875 259.027344 784.539062 255.28125 C 781.90625 251.539062 779.1875 247.855469 776.382812 244.242188 C 773.578125 240.625 770.6875 237.074219 767.714844 233.59375 C 764.742188 230.113281 761.691406 226.707031 758.558594 223.367188 C 755.425781 220.03125 752.214844 216.769531 748.929688 213.585938 C 745.640625 210.398438 742.28125 207.292969 738.847656 204.265625 C 735.417969 201.238281 731.914062 198.292969 728.34375 195.429688 C 724.769531 192.566406 721.132812 189.789062 717.429688 187.097656 C 713.726562 184.40625 709.964844 181.800781 706.140625 179.289062 C 702.3125 176.773438 698.429688 174.351562 694.492188 172.019531 C 690.554688 169.6875 686.5625 167.449219 682.515625 165.304688 C 678.472656 163.160156 674.378906 161.113281 670.238281 159.160156 C 666.09375 157.210938 661.910156 155.355469 657.683594 153.601562 C 653.453125 151.847656 649.1875 150.195312 644.878906 148.640625 C 640.574219 147.085938 636.234375 145.636719 631.859375 144.285156 C 627.484375 142.9375 623.078125 141.691406 618.644531 140.550781 C 614.210938 139.40625 609.753906 138.371094 605.273438 137.4375 C 600.789062 136.507812 596.289062 135.679688 591.765625 134.960938 C 587.246094 134.238281 582.710938 133.625 578.160156 133.121094 C 573.609375 132.613281 569.050781 132.214844 564.480469 131.921875 C 559.910156 131.628906 555.339844 131.445312 550.761719 131.367188 C 546.183594 131.289062 541.605469 131.320312 537.027344 131.457031 C 532.453125 131.597656 527.882812 131.84375 523.316406 132.195312 C 518.753906 132.550781 514.199219 133.011719 509.65625 133.578125 C 505.113281 134.144531 500.585938 134.820312 496.074219 135.601562 C 491.5625 136.382812 487.074219 137.269531 482.605469 138.261719 C 478.132812 139.253906 473.691406 140.351562 469.273438 141.550781 C 464.855469 142.753906 460.46875 144.058594 456.113281 145.464844 L 496.734375 186.066406 C 512.863281 182.628906 529.175781 180.816406 545.671875 180.632812 Z M 545.671875 180.632812 " fill-opacity="1" fill-rule="nonzero"/><g clip-path="url(#81f692a452)"><path fill="#ffffff" d="M 519.28125 208.765625 L 570.300781 259.597656 L 602.285156 291.566406 L 653.140625 342.554688 C 653.679688 340.523438 654.160156 338.476562 654.578125 336.417969 C 655 334.359375 655.359375 332.289062 655.660156 330.207031 C 655.960938 328.125 656.203125 326.039062 656.382812 323.945312 C 656.5625 321.847656 656.683594 319.75 656.742188 317.648438 C 656.800781 315.546875 656.800781 313.445312 656.738281 311.34375 C 656.675781 309.242188 656.554688 307.144531 656.371094 305.050781 C 656.1875 302.957031 655.941406 300.871094 655.640625 298.789062 C 655.335938 296.710938 654.972656 294.640625 654.550781 292.578125 C 654.125 290.519531 653.644531 288.476562 653.105469 286.445312 C 652.5625 284.410156 651.964844 282.398438 651.304688 280.402344 C 650.648438 278.402344 649.933594 276.425781 649.164062 274.472656 C 648.390625 272.515625 647.5625 270.582031 646.679688 268.675781 C 645.796875 266.765625 644.859375 264.886719 643.871094 263.03125 C 642.878906 261.175781 641.835938 259.351562 640.738281 257.558594 C 639.640625 255.765625 638.492188 254.003906 637.292969 252.277344 C 636.097656 250.550781 634.847656 248.855469 633.554688 247.203125 C 632.257812 245.546875 630.914062 243.929688 629.523438 242.351562 C 628.136719 240.773438 626.703125 239.234375 625.222656 237.738281 C 623.746094 236.242188 622.226562 234.789062 620.664062 233.382812 C 619.101562 231.972656 617.5 230.613281 615.859375 229.296875 C 614.21875 227.980469 612.542969 226.714844 610.828125 225.496094 C 609.117188 224.273438 607.367188 223.105469 605.585938 221.988281 C 603.804688 220.871094 601.996094 219.804688 600.152344 218.789062 C 598.308594 217.777344 596.4375 216.816406 594.539062 215.910156 C 592.644531 215.003906 590.71875 214.152344 588.773438 213.359375 C 586.824219 212.5625 584.859375 211.824219 582.867188 211.140625 C 580.878906 210.460938 578.871094 209.835938 576.84375 209.269531 C 574.820312 208.703125 572.777344 208.199219 570.722656 207.75 C 568.667969 207.300781 566.601562 206.910156 564.523438 206.582031 C 562.449219 206.253906 560.363281 205.984375 558.269531 205.777344 C 556.175781 205.566406 554.078125 205.417969 551.976562 205.328125 C 549.875 205.242188 547.773438 205.214844 545.671875 205.246094 C 536.722656 205.285156 527.925781 206.457031 519.28125 208.765625 Z M 299.703125 128.359375 L 365.753906 194.21875 C 355.636719 202.117188 346.089844 210.652344 337.117188 219.828125 C 328.140625 229 319.820312 238.730469 312.148438 249.019531 C 304.476562 259.308594 297.523438 270.058594 291.289062 281.277344 C 285.058594 292.492188 279.597656 304.074219 274.917969 316.023438 C 276.65625 320.449219 278.503906 324.835938 280.460938 329.171875 C 282.417969 333.511719 284.480469 337.796875 286.644531 342.035156 C 288.8125 346.273438 291.082031 350.453125 293.453125 354.578125 C 295.824219 358.703125 298.296875 362.769531 300.867188 366.773438 C 303.441406 370.777344 306.109375 374.714844 308.875 378.589844 C 311.640625 382.464844 314.496094 386.265625 317.449219 390 C 320.402344 393.734375 323.441406 397.390625 326.574219 400.976562 C 329.707031 404.558594 332.921875 408.0625 336.226562 411.488281 C 339.53125 414.914062 342.917969 418.257812 346.386719 421.519531 C 349.851562 424.777344 353.398438 427.949219 357.023438 431.035156 C 360.644531 434.121094 364.34375 437.117188 368.113281 440.023438 C 371.886719 442.925781 375.726562 445.738281 379.632812 448.453125 C 383.542969 451.167969 387.515625 453.785156 391.554688 456.308594 C 395.589844 458.828125 399.6875 461.25 403.84375 463.570312 C 408 465.890625 412.210938 468.105469 416.476562 470.21875 C 420.742188 472.332031 425.058594 474.339844 429.421875 476.242188 C 433.785156 478.144531 438.195312 479.9375 442.644531 481.621094 C 447.097656 483.308594 451.589844 484.882812 456.117188 486.347656 C 460.648438 487.8125 465.210938 489.164062 469.804688 490.40625 C 474.402344 491.648438 479.023438 492.773438 483.675781 493.789062 C 488.328125 494.800781 493 495.703125 497.695312 496.488281 C 502.390625 497.273438 507.101562 497.941406 511.832031 498.496094 C 516.558594 499.046875 521.300781 499.484375 526.046875 499.808594 C 530.796875 500.128906 535.554688 500.332031 540.3125 500.421875 C 545.074219 500.507812 549.832031 500.480469 554.589844 500.332031 C 559.347656 500.1875 564.101562 499.925781 568.847656 499.546875 C 573.589844 499.167969 578.324219 498.671875 583.046875 498.058594 C 587.765625 497.449219 592.46875 496.722656 597.15625 495.878906 C 601.839844 495.039062 606.503906 494.082031 611.140625 493.011719 C 615.78125 491.941406 620.390625 490.757812 624.96875 489.460938 C 629.550781 488.164062 634.097656 486.753906 638.609375 485.234375 C 643.117188 483.714844 647.589844 482.085938 652.019531 480.34375 L 736.140625 564.425781 L 770.6875 529.738281 L 334.410156 93.355469 Z M 400.617188 229.226562 L 443.796875 272.222656 C 440.804688 279.023438 438.554688 286.058594 437.046875 293.332031 C 435.539062 300.605469 434.800781 307.953125 434.84375 315.382812 C 434.835938 317.644531 434.898438 319.90625 435.035156 322.167969 C 435.167969 324.425781 435.371094 326.679688 435.644531 328.925781 C 435.917969 331.171875 436.257812 333.410156 436.671875 335.632812 C 437.082031 337.859375 437.5625 340.070312 438.109375 342.265625 C 438.65625 344.464844 439.273438 346.640625 439.953125 348.796875 C 440.636719 350.957031 441.382812 353.089844 442.199219 355.203125 C 443.011719 357.316406 443.890625 359.402344 444.835938 361.457031 C 445.777344 363.515625 446.78125 365.542969 447.851562 367.539062 C 448.917969 369.535156 450.046875 371.496094 451.238281 373.421875 C 452.425781 375.347656 453.671875 377.234375 454.980469 379.082031 C 456.285156 380.933594 457.648438 382.738281 459.0625 384.503906 C 460.480469 386.269531 461.953125 387.988281 463.476562 389.664062 C 465 391.339844 466.574219 392.964844 468.195312 394.542969 C 469.820312 396.117188 471.492188 397.644531 473.210938 399.117188 C 474.929688 400.59375 476.691406 402.011719 478.496094 403.378906 C 480.304688 404.742188 482.148438 406.050781 484.035156 407.300781 C 485.921875 408.554688 487.847656 409.746094 489.808594 410.878906 C 491.769531 412.011719 493.761719 413.082031 495.789062 414.089844 C 497.816406 415.101562 499.871094 416.046875 501.957031 416.929688 C 504.039062 417.8125 506.152344 418.628906 508.285156 419.382812 C 510.421875 420.136719 512.578125 420.820312 514.757812 421.441406 C 516.933594 422.0625 519.128906 422.613281 521.34375 423.097656 C 523.554688 423.582031 525.777344 423.996094 528.015625 424.34375 C 530.253906 424.6875 532.5 424.964844 534.753906 425.175781 C 537.011719 425.382812 539.269531 425.519531 541.53125 425.589844 C 543.796875 425.660156 546.058594 425.65625 548.324219 425.585938 C 550.585938 425.515625 552.84375 425.375 555.101562 425.164062 C 557.355469 424.953125 559.601562 424.671875 561.835938 424.324219 C 564.074219 423.976562 566.300781 423.558594 568.511719 423.070312 C 570.722656 422.585938 572.917969 422.03125 575.09375 421.410156 C 577.273438 420.789062 579.425781 420.101562 581.5625 419.34375 C 583.699219 418.589844 585.808594 417.769531 587.890625 416.886719 L 588.851562 417.84375 L 613 441.980469 C 590.867188 448.105469 568.316406 451.195312 545.351562 451.253906 C 539.734375 451.261719 534.125 451.074219 528.523438 450.691406 C 522.921875 450.308594 517.339844 449.726562 511.777344 448.953125 C 506.214844 448.179688 500.6875 447.214844 495.191406 446.054688 C 489.699219 444.894531 484.25 443.542969 478.851562 442 C 473.453125 440.460938 468.113281 438.734375 462.835938 436.820312 C 457.554688 434.90625 452.351562 432.808594 447.21875 430.53125 C 442.085938 428.25 437.039062 425.796875 432.078125 423.167969 C 427.117188 420.535156 422.257812 417.734375 417.492188 414.761719 C 412.726562 411.792969 408.074219 408.660156 403.527344 405.363281 C 398.984375 402.066406 394.558594 398.613281 390.253906 395.007812 C 385.953125 391.402344 381.78125 387.652344 377.738281 383.753906 C 373.699219 379.855469 369.796875 375.824219 366.039062 371.652344 C 362.28125 367.484375 358.671875 363.1875 355.214844 358.765625 C 351.757812 354.34375 348.457031 349.804688 345.316406 345.152344 C 342.175781 340.5 339.203125 335.742188 336.394531 330.878906 C 333.585938 326.019531 330.953125 321.066406 328.492188 316.023438 C 332.707031 307.507812 337.402344 299.265625 342.582031 291.300781 C 347.757812 283.335938 353.386719 275.699219 359.457031 268.390625 C 365.53125 261.085938 372.007812 254.15625 378.890625 247.605469 C 385.773438 241.054688 393.015625 234.929688 400.617188 229.226562 Z M 400.617188 229.226562 " fill-opacity="1" fill-rule="nonzero"/></g><g fill="#ff00ff" fill-opacity="1"><g transform="translate(95.869705, 355.94644)"><g><path d="M 3.078125 -26.941406 L 11.46875 -26.941406 L 11.46875 -53.886719 L 3.078125 -53.886719 Z M 48.574219 0 L 56.964844 0 L 56.964844 -53.886719 L 48.574219 -53.886719 Z M 3.078125 0 L 11.546875 0 L 11.546875 -13.085938 C 11.546875 -16.089844 13.933594 -18.476562 16.933594 -18.476562 L 43.109375 -18.476562 L 43.109375 -26.941406 L 16.933594 -26.941406 C 9.160156 -26.941406 3.078125 -20.863281 3.078125 -13.085938 Z M 3.078125 0 "/></g></g></g><g fill="#ff00ff" fill-opacity="1"><g transform="translate(155.911604, 355.94644)"><g><path d="M 48.496094 0 L 56.964844 0 L 56.964844 -40.027344 C 56.964844 -47.804688 50.804688 -53.886719 43.03125 -53.886719 L 11.46875 -53.886719 L 11.46875 -45.417969 L 43.03125 -45.417969 C 46.035156 -45.417969 48.496094 -43.03125 48.496094 -40.027344 Z M 3.078125 0 L 11.46875 0 L 11.46875 -17.320312 L 43.109375 -17.320312 L 43.109375 -25.789062 L 11.46875 -25.789062 L 11.46875 -45.417969 L 3.078125 -45.417969 Z M 3.078125 0 "/></g></g></g><g fill="#ff00ff" fill-opacity="1"><g transform="translate(215.953502, 355.94644)"><g><path d="M 30.097656 0.078125 C 40.414062 0.078125 43.648438 -11.46875 47.1875 -25.324219 C 48.957031 -32.5625 51.730469 -45.417969 57.042969 -45.417969 L 57.042969 -53.886719 C 45.957031 -53.886719 42.414062 -41.261719 38.953125 -27.40625 C 37.488281 -21.476562 34.640625 -8.082031 30.097656 -8.082031 C 25.558594 -8.082031 22.785156 -20.9375 21.167969 -27.40625 C 17.628906 -41.722656 13.933594 -53.886719 3.078125 -53.886719 L 3.078125 -45.417969 C 8.3125 -45.417969 11.085938 -32.871094 12.933594 -25.402344 C 16.242188 -12.238281 19.550781 0.078125 30.097656 0.078125 Z M 30.097656 0.078125 "/></g></g></g><g fill="#ff00ff" fill-opacity="1"><g transform="translate(275.995401, 355.94644)"><g><path d="M 11.546875 -45.417969 L 56.964844 -45.417969 L 56.964844 -53.886719 L 11.546875 -53.886719 Z M 16.933594 0 L 56.964844 0 L 56.964844 -8.46875 L 16.933594 -8.46875 C 14.011719 -8.46875 11.546875 -10.855469 11.546875 -13.855469 L 11.546875 -45.417969 L 3.078125 -45.417969 L 3.078125 -13.855469 C 3.078125 -6.160156 9.238281 0 16.933594 0 Z M 16.859375 -22.707031 L 51.574219 -22.707031 L 51.574219 -31.175781 L 16.859375 -31.175781 Z M 16.859375 -22.707031 "/></g></g></g><g fill="#ff00ff" fill-opacity="1"><g transform="translate(336.0373, 355.94644)"><g/></g></g><g fill="#ff00ff" fill-opacity="1"><g transform="translate(366.828015, 355.94644)"><g><path d="M 3.078125 -45.417969 L 52.347656 -45.417969 L 52.347656 -53.886719 L 3.078125 -53.886719 Z M 37.335938 0 L 52.347656 0 L 52.347656 -8.46875 L 37.335938 -8.46875 C 34.410156 -8.46875 31.945312 -10.855469 31.945312 -13.855469 L 31.945312 -40.027344 L 23.554688 -40.027344 L 23.554688 -13.855469 C 23.554688 -6.160156 29.636719 0 37.335938 0 Z M 3.078125 0 L 23.480469 0 L 23.480469 -8.46875 L 3.078125 -8.46875 Z M 3.078125 0 "/></g></g></g><g fill="#ff00ff" fill-opacity="1"><g transform="translate(422.251301, 355.94644)"><g/></g></g><g fill="#ff00ff" fill-opacity="1"><g transform="translate(453.042036, 355.94644)"><g><path d="M 48.496094 -8.46875 L 56.964844 -8.46875 L 56.964844 -15.625 C 56.964844 -20.9375 55.347656 -24.09375 52.808594 -26.941406 C 55.347656 -29.789062 56.964844 -33.410156 56.964844 -38.335938 C 56.964844 -46.496094 51.652344 -53.886719 42.722656 -53.886719 L 11.46875 -53.886719 L 11.46875 -45.417969 L 42.722656 -45.417969 C 45.726562 -45.417969 48.496094 -42.492188 48.496094 -38.335938 C 48.496094 -34.179688 45.726562 -31.175781 42.722656 -31.175781 L 16.859375 -31.175781 L 16.859375 -22.707031 L 42.722656 -22.707031 C 45.726562 -22.707031 48.496094 -19.785156 48.496094 -15.625 Z M 16.859375 0 L 48.496094 0 L 48.496094 -8.46875 L 16.859375 -8.46875 C 13.933594 -8.46875 11.46875 -10.855469 11.46875 -13.855469 L 11.46875 -45.417969 L 3.078125 -45.417969 L 3.078125 -13.855469 C 3.078125 -6.160156 9.160156 0 16.859375 0 Z M 16.859375 0 "/></g></g></g><g fill="#ff00ff" fill-opacity="1"><g transform="translate(513.083913, 355.94644)"><g><path d="M 11.546875 -45.417969 L 56.964844 -45.417969 L 56.964844 -53.886719 L 11.546875 -53.886719 Z M 16.933594 0 L 56.964844 0 L 56.964844 -8.46875 L 16.933594 -8.46875 C 14.011719 -8.46875 11.546875 -10.855469 11.546875 -13.855469 L 11.546875 -45.417969 L 3.078125 -45.417969 L 3.078125 -13.855469 C 3.078125 -6.160156 9.238281 0 16.933594 0 Z M 16.859375 -22.707031 L 51.574219 -22.707031 L 51.574219 -31.175781 L 16.859375 -31.175781 Z M 16.859375 -22.707031 "/></g></g></g><g fill="#ff00ff" fill-opacity="1"><g transform="translate(573.125791, 355.94644)"><g><path d="M 11.546875 -45.417969 L 56.964844 -45.417969 L 56.964844 -53.886719 L 11.546875 -53.886719 Z M 16.933594 0 L 56.964844 0 L 56.964844 -8.46875 L 16.933594 -8.46875 C 14.011719 -8.46875 11.546875 -10.855469 11.546875 -13.855469 L 11.546875 -45.417969 L 3.078125 -45.417969 L 3.078125 -13.855469 C 3.078125 -6.160156 9.238281 0 16.933594 0 Z M 16.859375 -22.707031 L 51.574219 -22.707031 L 51.574219 -31.175781 L 16.859375 -31.175781 Z M 16.859375 -22.707031 "/></g></g></g><g fill="#ff00ff" fill-opacity="1"><g transform="translate(633.167668, 355.94644)"><g><path d="M 48.496094 0 L 48.496094 -8.46875 C 42.722656 -8.46875 37.796875 -20.167969 33.871094 -28.636719 C 28.175781 -41.875 22.476562 -53.886719 11.546875 -53.886719 L 11.546875 -45.417969 C 17.320312 -45.417969 22.246094 -33.949219 26.097656 -25.402344 C 31.714844 -12.777344 37.335938 0 48.496094 0 Z M 48.496094 -8.46875 L 56.964844 -8.46875 L 56.964844 -53.886719 L 48.496094 -53.886719 Z M 3.078125 0 L 11.546875 0 L 11.546875 -45.417969 L 3.078125 -45.417969 Z M 3.078125 0 "/></g></g></g><g fill="#ff00ff" fill-opacity="1"><g transform="translate(693.209545, 355.94644)"><g/></g></g><g fill="#ff00ff" fill-opacity="1"><g transform="translate(724.000239, 355.94644)"><g><path d="M 3.078125 -8.46875 L 11.546875 -8.46875 L 11.546875 -40.027344 C 11.546875 -43.03125 13.933594 -45.417969 16.933594 -45.417969 L 48.496094 -45.417969 L 48.496094 -53.886719 L 16.933594 -53.886719 C 9.160156 -53.886719 3.078125 -47.804688 3.078125 -40.027344 Z M 48.496094 -36.949219 L 56.964844 -36.949219 L 56.964844 -45.417969 L 48.496094 -45.417969 Z M 11.546875 0 L 56.964844 0 L 56.964844 -13.855469 L 48.496094 -13.855469 L 48.496094 -8.46875 L 11.546875 -8.46875 Z M 11.546875 0 "/></g></g></g><g fill="#ff00ff" fill-opacity="1"><g transform="translate(784.042116, 355.94644)"><g><path d="M 48.496094 0 L 56.964844 0 L 56.964844 -10.777344 C 56.964844 -14.933594 55.347656 -18.707031 52.808594 -21.554688 C 55.347656 -24.402344 56.964844 -28.175781 56.964844 -32.332031 L 56.964844 -40.027344 C 56.964844 -47.804688 50.882812 -53.886719 43.109375 -53.886719 L 11.546875 -53.886719 L 11.546875 -45.417969 L 43.109375 -45.417969 C 46.109375 -45.417969 48.496094 -43.03125 48.496094 -40.027344 L 48.496094 -32.332031 C 48.496094 -29.328125 46.109375 -25.789062 43.109375 -25.789062 L 16.933594 -25.789062 L 16.933594 -17.320312 L 43.109375 -17.320312 C 46.109375 -17.320312 48.496094 -13.777344 48.496094 -10.777344 Z M 3.078125 0 L 11.546875 0 L 11.546875 -45.417969 L 3.078125 -45.417969 Z M 3.078125 0 "/></g></g></g><g fill="#ff00ff" fill-opacity="1"><g transform="translate(844.083993, 355.94644)"><g><path d="M 48.496094 0 L 56.964844 0 L 56.964844 -40.027344 C 56.964844 -47.804688 50.804688 -53.886719 43.03125 -53.886719 L 11.46875 -53.886719 L 11.46875 -45.417969 L 43.03125 -45.417969 C 46.035156 -45.417969 48.496094 -43.03125 48.496094 -40.027344 Z M 3.078125 0 L 11.46875 0 L 11.46875 -17.320312 L 43.109375 -17.320312 L 43.109375 -25.789062 L 11.46875 -25.789062 L 11.46875 -45.417969 L 3.078125 -45.417969 Z M 3.078125 0 "/></g></g></g><g fill="#ff00ff" fill-opacity="1"><g transform="translate(904.125871, 355.94644)"><g><path d="M 3.078125 -8.46875 L 11.546875 -8.46875 L 11.546875 -40.027344 C 11.546875 -43.03125 13.933594 -45.417969 16.933594 -45.417969 L 48.496094 -45.417969 L 48.496094 -53.886719 L 16.933594 -53.886719 C 9.160156 -53.886719 3.078125 -47.804688 3.078125 -40.027344 Z M 48.496094 -36.949219 L 56.964844 -36.949219 L 56.964844 -45.417969 L 48.496094 -45.417969 Z M 11.546875 0 L 56.964844 0 L 56.964844 -13.855469 L 48.496094 -13.855469 L 48.496094 -8.46875 L 11.546875 -8.46875 Z M 11.546875 0 "/></g></g></g><g fill="#ff00ff" fill-opacity="1"><g transform="translate(964.167748, 355.94644)"><g><path d="M 3.078125 0 L 11.546875 0 L 11.546875 -53.886719 L 3.078125 -53.886719 Z M 46.1875 0 L 54.65625 0 L 54.65625 -10.777344 C 54.65625 -15.320312 53.039062 -18.707031 48.1875 -21.554688 C 53.039062 -24.402344 54.65625 -28.175781 54.65625 -34.640625 L 54.65625 -53.886719 L 46.1875 -53.886719 L 46.1875 -34.640625 C 46.1875 -29.328125 43.800781 -25.789062 38.488281 -25.789062 L 16.933594 -25.789062 L 16.933594 -17.320312 L 39.644531 -17.320312 C 43.800781 -17.320312 46.1875 -14.164062 46.1875 -10.777344 Z M 46.1875 0 "/></g></g></g><g fill="#ff00ff" fill-opacity="1"><g transform="translate(1021.90032, 355.94644)"><g><path d="M 11.546875 -45.417969 L 56.964844 -45.417969 L 56.964844 -53.886719 L 11.546875 -53.886719 Z M 16.933594 0 L 56.964844 0 L 56.964844 -8.46875 L 16.933594 -8.46875 C 14.011719 -8.46875 11.546875 -10.855469 11.546875 -13.855469 L 11.546875 -45.417969 L 3.078125 -45.417969 L 3.078125 -13.855469 C 3.078125 -6.160156 9.238281 0 16.933594 0 Z M 16.859375 -22.707031 L 51.574219 -22.707031 L 51.574219 -31.175781 L 16.859375 -31.175781 Z M 16.859375 -22.707031 "/></g></g></g><g fill="#ff00ff" fill-opacity="1"><g transform="translate(1081.942198, 355.94644)"><g><path d="M 48.496094 -8.46875 L 56.964844 -8.46875 L 56.964844 -40.027344 C 56.964844 -47.804688 50.882812 -53.886719 43.109375 -53.886719 L 11.546875 -53.886719 L 11.546875 -45.417969 L 43.109375 -45.417969 C 46.109375 -45.417969 48.496094 -43.03125 48.496094 -40.027344 Z M 3.078125 0 L 48.496094 0 L 48.496094 -8.46875 L 11.546875 -8.46875 L 11.546875 -45.417969 L 3.078125 -45.417969 Z M 3.078125 0 "/></g></g></g><g fill="#00ffff" fill-opacity="1"><g transform="translate(87.999018, 359.785237)"><g><path d="M 3.078125 -26.941406 L 11.46875 -26.941406 L 11.46875 -53.886719 L 3.078125 -53.886719 Z M 48.574219 0 L 56.964844 0 L 56.964844 -53.886719 L 48.574219 -53.886719 Z M 3.078125 0 L 11.546875 0 L 11.546875 -13.085938 C 11.546875 -16.089844 13.933594 -18.476562 16.933594 -18.476562 L 43.109375 -18.476562 L 43.109375 -26.941406 L 16.933594 -26.941406 C 9.160156 -26.941406 3.078125 -20.863281 3.078125 -13.085938 Z M 3.078125 0 "/></g></g></g><g fill="#00ffff" fill-opacity="1"><g transform="translate(148.040917, 359.785237)"><g><path d="M 48.496094 0 L 56.964844 0 L 56.964844 -40.027344 C 56.964844 -47.804688 50.804688 -53.886719 43.03125 -53.886719 L 11.46875 -53.886719 L 11.46875 -45.417969 L 43.03125 -45.417969 C 46.035156 -45.417969 48.496094 -43.03125 48.496094 -40.027344 Z M 3.078125 0 L 11.46875 0 L 11.46875 -17.320312 L 43.109375 -17.320312 L 43.109375 -25.789062 L 11.46875 -25.789062 L 11.46875 -45.417969 L 3.078125 -45.417969 Z M 3.078125 0 "/></g></g></g><g fill="#00ffff" fill-opacity="1"><g transform="translate(208.082816, 359.785237)"><g><path d="M 30.097656 0.078125 C 40.414062 0.078125 43.648438 -11.46875 47.1875 -25.324219 C 48.957031 -32.5625 51.730469 -45.417969 57.042969 -45.417969 L 57.042969 -53.886719 C 45.957031 -53.886719 42.414062 -41.261719 38.953125 -27.40625 C 37.488281 -21.476562 34.640625 -8.082031 30.097656 -8.082031 C 25.558594 -8.082031 22.785156 -20.9375 21.167969 -27.40625 C 17.628906 -41.722656 13.933594 -53.886719 3.078125 -53.886719 L 3.078125 -45.417969 C 8.3125 -45.417969 11.085938 -32.871094 12.933594 -25.402344 C 16.242188 -12.238281 19.550781 0.078125 30.097656 0.078125 Z M 30.097656 0.078125 "/></g></g></g><g fill="#00ffff" fill-opacity="1"><g transform="translate(268.124715, 359.785237)"><g><path d="M 11.546875 -45.417969 L 56.964844 -45.417969 L 56.964844 -53.886719 L 11.546875 -53.886719 Z M 16.933594 0 L 56.964844 0 L 56.964844 -8.46875 L 16.933594 -8.46875 C 14.011719 -8.46875 11.546875 -10.855469 11.546875 -13.855469 L 11.546875 -45.417969 L 3.078125 -45.417969 L 3.078125 -13.855469 C 3.078125 -6.160156 9.238281 0 16.933594 0 Z M 16.859375 -22.707031 L 51.574219 -22.707031 L 51.574219 -31.175781 L 16.859375 -31.175781 Z M 16.859375 -22.707031 "/></g></g></g><g fill="#00ffff" fill-opacity="1"><g transform="translate(328.166614, 359.785237)"><g/></g></g><g fill="#00ffff" fill-opacity="1"><g transform="translate(358.957329, 359.785237)"><g><path d="M 3.078125 -45.417969 L 52.347656 -45.417969 L 52.347656 -53.886719 L 3.078125 -53.886719 Z M 37.335938 0 L 52.347656 0 L 52.347656 -8.46875 L 37.335938 -8.46875 C 34.410156 -8.46875 31.945312 -10.855469 31.945312 -13.855469 L 31.945312 -40.027344 L 23.554688 -40.027344 L 23.554688 -13.855469 C 23.554688 -6.160156 29.636719 0 37.335938 0 Z M 3.078125 0 L 23.480469 0 L 23.480469 -8.46875 L 3.078125 -8.46875 Z M 3.078125 0 "/></g></g></g><g fill="#00ffff" fill-opacity="1"><g transform="translate(414.380614, 359.785237)"><g/></g></g><g fill="#00ffff" fill-opacity="1"><g transform="translate(445.171349, 359.785237)"><g><path d="M 48.496094 -8.46875 L 56.964844 -8.46875 L 56.964844 -15.625 C 56.964844 -20.9375 55.347656 -24.09375 52.808594 -26.941406 C 55.347656 -29.789062 56.964844 -33.410156 56.964844 -38.335938 C 56.964844 -46.496094 51.652344 -53.886719 42.722656 -53.886719 L 11.46875 -53.886719 L 11.46875 -45.417969 L 42.722656 -45.417969 C 45.726562 -45.417969 48.496094 -42.492188 48.496094 -38.335938 C 48.496094 -34.179688 45.726562 -31.175781 42.722656 -31.175781 L 16.859375 -31.175781 L 16.859375 -22.707031 L 42.722656 -22.707031 C 45.726562 -22.707031 48.496094 -19.785156 48.496094 -15.625 Z M 16.859375 0 L 48.496094 0 L 48.496094 -8.46875 L 16.859375 -8.46875 C 13.933594 -8.46875 11.46875 -10.855469 11.46875 -13.855469 L 11.46875 -45.417969 L 3.078125 -45.417969 L 3.078125 -13.855469 C 3.078125 -6.160156 9.160156 0 16.859375 0 Z M 16.859375 0 "/></g></g></g><g fill="#00ffff" fill-opacity="1"><g transform="translate(505.213227, 359.785237)"><g><path d="M 11.546875 -45.417969 L 56.964844 -45.417969 L 56.964844 -53.886719 L 11.546875 -53.886719 Z M 16.933594 0 L 56.964844 0 L 56.964844 -8.46875 L 16.933594 -8.46875 C 14.011719 -8.46875 11.546875 -10.855469 11.546875 -13.855469 L 11.546875 -45.417969 L 3.078125 -45.417969 L 3.078125 -13.855469 C 3.078125 -6.160156 9.238281 0 16.933594 0 Z M 16.859375 -22.707031 L 51.574219 -22.707031 L 51.574219 -31.175781 L 16.859375 -31.175781 Z M 16.859375 -22.707031 "/></g></g></g><g fill="#00ffff" fill-opacity="1"><g transform="translate(565.255104, 359.785237)"><g><path d="M 11.546875 -45.417969 L 56.964844 -45.417969 L 56.964844 -53.886719 L 11.546875 -53.886719 Z M 16.933594 0 L 56.964844 0 L 56.964844 -8.46875 L 16.933594 -8.46875 C 14.011719 -8.46875 11.546875 -10.855469 11.546875 -13.855469 L 11.546875 -45.417969 L 3.078125 -45.417969 L 3.078125 -13.855469 C 3.078125 -6.160156 9.238281 0 16.933594 0 Z M 16.859375 -22.707031 L 51.574219 -22.707031 L 51.574219 -31.175781 L 16.859375 -31.175781 Z M 16.859375 -22.707031 "/></g></g></g><g fill="#00ffff" fill-opacity="1"><g transform="translate(625.296982, 359.785237)"><g><path d="M 48.496094 0 L 48.496094 -8.46875 C 42.722656 -8.46875 37.796875 -20.167969 33.871094 -28.636719 C 28.175781 -41.875 22.476562 -53.886719 11.546875 -53.886719 L 11.546875 -45.417969 C 17.320312 -45.417969 22.246094 -33.949219 26.097656 -25.402344 C 31.714844 -12.777344 37.335938 0 48.496094 0 Z M 48.496094 -8.46875 L 56.964844 -8.46875 L 56.964844 -53.886719 L 48.496094 -53.886719 Z M 3.078125 0 L 11.546875 0 L 11.546875 -45.417969 L 3.078125 -45.417969 Z M 3.078125 0 "/></g></g></g><g fill="#00ffff" fill-opacity="1"><g transform="translate(685.338859, 359.785237)"><g/></g></g><g fill="#00ffff" fill-opacity="1"><g transform="translate(716.129552, 359.785237)"><g><path d="M 3.078125 -8.46875 L 11.546875 -8.46875 L 11.546875 -40.027344 C 11.546875 -43.03125 13.933594 -45.417969 16.933594 -45.417969 L 48.496094 -45.417969 L 48.496094 -53.886719 L 16.933594 -53.886719 C 9.160156 -53.886719 3.078125 -47.804688 3.078125 -40.027344 Z M 48.496094 -36.949219 L 56.964844 -36.949219 L 56.964844 -45.417969 L 48.496094 -45.417969 Z M 11.546875 0 L 56.964844 0 L 56.964844 -13.855469 L 48.496094 -13.855469 L 48.496094 -8.46875 L 11.546875 -8.46875 Z M 11.546875 0 "/></g></g></g><g fill="#00ffff" fill-opacity="1"><g transform="translate(776.17143, 359.785237)"><g><path d="M 48.496094 0 L 56.964844 0 L 56.964844 -10.777344 C 56.964844 -14.933594 55.347656 -18.707031 52.808594 -21.554688 C 55.347656 -24.402344 56.964844 -28.175781 56.964844 -32.332031 L 56.964844 -40.027344 C 56.964844 -47.804688 50.882812 -53.886719 43.109375 -53.886719 L 11.546875 -53.886719 L 11.546875 -45.417969 L 43.109375 -45.417969 C 46.109375 -45.417969 48.496094 -43.03125 48.496094 -40.027344 L 48.496094 -32.332031 C 48.496094 -29.328125 46.109375 -25.789062 43.109375 -25.789062 L 16.933594 -25.789062 L 16.933594 -17.320312 L 43.109375 -17.320312 C 46.109375 -17.320312 48.496094 -13.777344 48.496094 -10.777344 Z M 3.078125 0 L 11.546875 0 L 11.546875 -45.417969 L 3.078125 -45.417969 Z M 3.078125 0 "/></g></g></g><g fill="#00ffff" fill-opacity="1"><g transform="translate(836.213307, 359.785237)"><g><path d="M 48.496094 0 L 56.964844 0 L 56.964844 -40.027344 C 56.964844 -47.804688 50.804688 -53.886719 43.03125 -53.886719 L 11.46875 -53.886719 L 11.46875 -45.417969 L 43.03125 -45.417969 C 46.035156 -45.417969 48.496094 -43.03125 48.496094 -40.027344 Z M 3.078125 0 L 11.46875 0 L 11.46875 -17.320312 L 43.109375 -17.320312 L 43.109375 -25.789062 L 11.46875 -25.789062 L 11.46875 -45.417969 L 3.078125 -45.417969 Z M 3.078125 0 "/></g></g></g><g fill="#00ffff" fill-opacity="1"><g transform="translate(896.255185, 359.785237)"><g><path d="M 3.078125 -8.46875 L 11.546875 -8.46875 L 11.546875 -40.027344 C 11.546875 -43.03125 13.933594 -45.417969 16.933594 -45.417969 L 48.496094 -45.417969 L 48.496094 -53.886719 L 16.933594 -53.886719 C 9.160156 -53.886719 3.078125 -47.804688 3.078125 -40.027344 Z M 48.496094 -36.949219 L 56.964844 -36.949219 L 56.964844 -45.417969 L 48.496094 -45.417969 Z M 11.546875 0 L 56.964844 0 L 56.964844 -13.855469 L 48.496094 -13.855469 L 48.496094 -8.46875 L 11.546875 -8.46875 Z M 11.546875 0 "/></g></g></g><g fill="#00ffff" fill-opacity="1"><g transform="translate(956.297062, 359.785237)"><g><path d="M 3.078125 0 L 11.546875 0 L 11.546875 -53.886719 L 3.078125 -53.886719 Z M 46.1875 0 L 54.65625 0 L 54.65625 -10.777344 C 54.65625 -15.320312 53.039062 -18.707031 48.1875 -21.554688 C 53.039062 -24.402344 54.65625 -28.175781 54.65625 -34.640625 L 54.65625 -53.886719 L 46.1875 -53.886719 L 46.1875 -34.640625 C 46.1875 -29.328125 43.800781 -25.789062 38.488281 -25.789062 L 16.933594 -25.789062 L 16.933594 -17.320312 L 39.644531 -17.320312 C 43.800781 -17.320312 46.1875 -14.164062 46.1875 -10.777344 Z M 46.1875 0 "/></g></g></g><g fill="#00ffff" fill-opacity="1"><g transform="translate(1014.029634, 359.785237)"><g><path d="M 11.546875 -45.417969 L 56.964844 -45.417969 L 56.964844 -53.886719 L 11.546875 -53.886719 Z M 16.933594 0 L 56.964844 0 L 56.964844 -8.46875 L 16.933594 -8.46875 C 14.011719 -8.46875 11.546875 -10.855469 11.546875 -13.855469 L 11.546875 -45.417969 L 3.078125 -45.417969 L 3.078125 -13.855469 C 3.078125 -6.160156 9.238281 0 16.933594 0 Z M 16.859375 -22.707031 L 51.574219 -22.707031 L 51.574219 -31.175781 L 16.859375 -31.175781 Z M 16.859375 -22.707031 "/></g></g></g><g fill="#00ffff" fill-opacity="1"><g transform="translate(1074.071511, 359.785237)"><g><path d="M 48.496094 -8.46875 L 56.964844 -8.46875 L 56.964844 -40.027344 C 56.964844 -47.804688 50.882812 -53.886719 43.109375 -53.886719 L 11.546875 -53.886719 L 11.546875 -45.417969 L 43.109375 -45.417969 C 46.109375 -45.417969 48.496094 -43.03125 48.496094 -40.027344 Z M 3.078125 0 L 48.496094 0 L 48.496094 -8.46875 L 11.546875 -8.46875 L 11.546875 -45.417969 L 3.078125 -45.417969 Z M 3.078125 0 "/></g></g></g><g fill="#000000" fill-opacity="1"><g transform="translate(91.93436, 357.86584)"><g><path d="M 3.078125 -26.941406 L 11.46875 -26.941406 L 11.46875 -53.886719 L 3.078125 -53.886719 Z M 48.574219 0 L 56.964844 0 L 56.964844 -53.886719 L 48.574219 -53.886719 Z M 3.078125 0 L 11.546875 0 L 11.546875 -13.085938 C 11.546875 -16.089844 13.933594 -18.476562 16.933594 -18.476562 L 43.109375 -18.476562 L 43.109375 -26.941406 L 16.933594 -26.941406 C 9.160156 -26.941406 3.078125 -20.863281 3.078125 -13.085938 Z M 3.078125 0 "/></g></g></g><g fill="#000000" fill-opacity="1"><g transform="translate(151.976259, 357.86584)"><g><path d="M 48.496094 0 L 56.964844 0 L 56.964844 -40.027344 C 56.964844 -47.804688 50.804688 -53.886719 43.03125 -53.886719 L 11.46875 -53.886719 L 11.46875 -45.417969 L 43.03125 -45.417969 C 46.035156 -45.417969 48.496094 -43.03125 48.496094 -40.027344 Z M 3.078125 0 L 11.46875 0 L 11.46875 -17.320312 L 43.109375 -17.320312 L 43.109375 -25.789062 L 11.46875 -25.789062 L 11.46875 -45.417969 L 3.078125 -45.417969 Z M 3.078125 0 "/></g></g></g><g fill="#000000" fill-opacity="1"><g transform="translate(212.018158, 357.86584)"><g><path d="M 30.097656 0.078125 C 40.414062 0.078125 43.648438 -11.46875 47.1875 -25.324219 C 48.957031 -32.5625 51.730469 -45.417969 57.042969 -45.417969 L 57.042969 -53.886719 C 45.957031 -53.886719 42.414062 -41.261719 38.953125 -27.40625 C 37.488281 -21.476562 34.640625 -8.082031 30.097656 -8.082031 C 25.558594 -8.082031 22.785156 -20.9375 21.167969 -27.40625 C 17.628906 -41.722656 13.933594 -53.886719 3.078125 -53.886719 L 3.078125 -45.417969 C 8.3125 -45.417969 11.085938 -32.871094 12.933594 -25.402344 C 16.242188 -12.238281 19.550781 0.078125 30.097656 0.078125 Z M 30.097656 0.078125 "/></g></g></g><g fill="#000000" fill-opacity="1"><g transform="translate(272.060057, 357.86584)"><g><path d="M 11.546875 -45.417969 L 56.964844 -45.417969 L 56.964844 -53.886719 L 11.546875 -53.886719 Z M 16.933594 0 L 56.964844 0 L 56.964844 -8.46875 L 16.933594 -8.46875 C 14.011719 -8.46875 11.546875 -10.855469 11.546875 -13.855469 L 11.546875 -45.417969 L 3.078125 -45.417969 L 3.078125 -13.855469 C 3.078125 -6.160156 9.238281 0 16.933594 0 Z M 16.859375 -22.707031 L 51.574219 -22.707031 L 51.574219 -31.175781 L 16.859375 -31.175781 Z M 16.859375 -22.707031 "/></g></g></g><g fill="#000000" fill-opacity="1"><g transform="translate(332.101956, 357.86584)"><g/></g></g><g fill="#000000" fill-opacity="1"><g transform="translate(362.892671, 357.86584)"><g><path d="M 3.078125 -45.417969 L 52.347656 -45.417969 L 52.347656 -53.886719 L 3.078125 -53.886719 Z M 37.335938 0 L 52.347656 0 L 52.347656 -8.46875 L 37.335938 -8.46875 C 34.410156 -8.46875 31.945312 -10.855469 31.945312 -13.855469 L 31.945312 -40.027344 L 23.554688 -40.027344 L 23.554688 -13.855469 C 23.554688 -6.160156 29.636719 0 37.335938 0 Z M 3.078125 0 L 23.480469 0 L 23.480469 -8.46875 L 3.078125 -8.46875 Z M 3.078125 0 "/></g></g></g><g fill="#000000" fill-opacity="1"><g transform="translate(418.315956, 357.86584)"><g/></g></g><g fill="#000000" fill-opacity="1"><g transform="translate(449.106691, 357.86584)"><g><path d="M 48.496094 -8.46875 L 56.964844 -8.46875 L 56.964844 -15.625 C 56.964844 -20.9375 55.347656 -24.09375 52.808594 -26.941406 C 55.347656 -29.789062 56.964844 -33.410156 56.964844 -38.335938 C 56.964844 -46.496094 51.652344 -53.886719 42.722656 -53.886719 L 11.46875 -53.886719 L 11.46875 -45.417969 L 42.722656 -45.417969 C 45.726562 -45.417969 48.496094 -42.492188 48.496094 -38.335938 C 48.496094 -34.179688 45.726562 -31.175781 42.722656 -31.175781 L 16.859375 -31.175781 L 16.859375 -22.707031 L 42.722656 -22.707031 C 45.726562 -22.707031 48.496094 -19.785156 48.496094 -15.625 Z M 16.859375 0 L 48.496094 0 L 48.496094 -8.46875 L 16.859375 -8.46875 C 13.933594 -8.46875 11.46875 -10.855469 11.46875 -13.855469 L 11.46875 -45.417969 L 3.078125 -45.417969 L 3.078125 -13.855469 C 3.078125 -6.160156 9.160156 0 16.859375 0 Z M 16.859375 0 "/></g></g></g><g fill="#000000" fill-opacity="1"><g transform="translate(509.148569, 357.86584)"><g><path d="M 11.546875 -45.417969 L 56.964844 -45.417969 L 56.964844 -53.886719 L 11.546875 -53.886719 Z M 16.933594 0 L 56.964844 0 L 56.964844 -8.46875 L 16.933594 -8.46875 C 14.011719 -8.46875 11.546875 -10.855469 11.546875 -13.855469 L 11.546875 -45.417969 L 3.078125 -45.417969 L 3.078125 -13.855469 C 3.078125 -6.160156 9.238281 0 16.933594 0 Z M 16.859375 -22.707031 L 51.574219 -22.707031 L 51.574219 -31.175781 L 16.859375 -31.175781 Z M 16.859375 -22.707031 "/></g></g></g><g fill="#000000" fill-opacity="1"><g transform="translate(569.190446, 357.86584)"><g><path d="M 11.546875 -45.417969 L 56.964844 -45.417969 L 56.964844 -53.886719 L 11.546875 -53.886719 Z M 16.933594 0 L 56.964844 0 L 56.964844 -8.46875 L 16.933594 -8.46875 C 14.011719 -8.46875 11.546875 -10.855469 11.546875 -13.855469 L 11.546875 -45.417969 L 3.078125 -45.417969 L 3.078125 -13.855469 C 3.078125 -6.160156 9.238281 0 16.933594 0 Z M 16.859375 -22.707031 L 51.574219 -22.707031 L 51.574219 -31.175781 L 16.859375 -31.175781 Z M 16.859375 -22.707031 "/></g></g></g><g fill="#000000" fill-opacity="1"><g transform="translate(629.232324, 357.86584)"><g><path d="M 48.496094 0 L 48.496094 -8.46875 C 42.722656 -8.46875 37.796875 -20.167969 33.871094 -28.636719 C 28.175781 -41.875 22.476562 -53.886719 11.546875 -53.886719 L 11.546875 -45.417969 C 17.320312 -45.417969 22.246094 -33.949219 26.097656 -25.402344 C 31.714844 -12.777344 37.335938 0 48.496094 0 Z M 48.496094 -8.46875 L 56.964844 -8.46875 L 56.964844 -53.886719 L 48.496094 -53.886719 Z M 3.078125 0 L 11.546875 0 L 11.546875 -45.417969 L 3.078125 -45.417969 Z M 3.078125 0 "/></g></g></g><g fill="#000000" fill-opacity="1"><g transform="translate(689.274201, 357.86584)"><g/></g></g><g fill="#000000" fill-opacity="1"><g transform="translate(720.064894, 357.86584)"><g><path d="M 3.078125 -8.46875 L 11.546875 -8.46875 L 11.546875 -40.027344 C 11.546875 -43.03125 13.933594 -45.417969 16.933594 -45.417969 L 48.496094 -45.417969 L 48.496094 -53.886719 L 16.933594 -53.886719 C 9.160156 -53.886719 3.078125 -47.804688 3.078125 -40.027344 Z M 48.496094 -36.949219 L 56.964844 -36.949219 L 56.964844 -45.417969 L 48.496094 -45.417969 Z M 11.546875 0 L 56.964844 0 L 56.964844 -13.855469 L 48.496094 -13.855469 L 48.496094 -8.46875 L 11.546875 -8.46875 Z M 11.546875 0 "/></g></g></g><g fill="#000000" fill-opacity="1"><g transform="translate(780.106772, 357.86584)"><g><path d="M 48.496094 0 L 56.964844 0 L 56.964844 -10.777344 C 56.964844 -14.933594 55.347656 -18.707031 52.808594 -21.554688 C 55.347656 -24.402344 56.964844 -28.175781 56.964844 -32.332031 L 56.964844 -40.027344 C 56.964844 -47.804688 50.882812 -53.886719 43.109375 -53.886719 L 11.546875 -53.886719 L 11.546875 -45.417969 L 43.109375 -45.417969 C 46.109375 -45.417969 48.496094 -43.03125 48.496094 -40.027344 L 48.496094 -32.332031 C 48.496094 -29.328125 46.109375 -25.789062 43.109375 -25.789062 L 16.933594 -25.789062 L 16.933594 -17.320312 L 43.109375 -17.320312 C 46.109375 -17.320312 48.496094 -13.777344 48.496094 -10.777344 Z M 3.078125 0 L 11.546875 0 L 11.546875 -45.417969 L 3.078125 -45.417969 Z M 3.078125 0 "/></g></g></g><g fill="#000000" fill-opacity="1"><g transform="translate(840.148649, 357.86584)"><g><path d="M 48.496094 0 L 56.964844 0 L 56.964844 -40.027344 C 56.964844 -47.804688 50.804688 -53.886719 43.03125 -53.886719 L 11.46875 -53.886719 L 11.46875 -45.417969 L 43.03125 -45.417969 C 46.035156 -45.417969 48.496094 -43.03125 48.496094 -40.027344 Z M 3.078125 0 L 11.46875 0 L 11.46875 -17.320312 L 43.109375 -17.320312 L 43.109375 -25.789062 L 11.46875 -25.789062 L 11.46875 -45.417969 L 3.078125 -45.417969 Z M 3.078125 0 "/></g></g></g><g fill="#000000" fill-opacity="1"><g transform="translate(900.190527, 357.86584)"><g><path d="M 3.078125 -8.46875 L 11.546875 -8.46875 L 11.546875 -40.027344 C 11.546875 -43.03125 13.933594 -45.417969 16.933594 -45.417969 L 48.496094 -45.417969 L 48.496094 -53.886719 L 16.933594 -53.886719 C 9.160156 -53.886719 3.078125 -47.804688 3.078125 -40.027344 Z M 48.496094 -36.949219 L 56.964844 -36.949219 L 56.964844 -45.417969 L 48.496094 -45.417969 Z M 11.546875 0 L 56.964844 0 L 56.964844 -13.855469 L 48.496094 -13.855469 L 48.496094 -8.46875 L 11.546875 -8.46875 Z M 11.546875 0 "/></g></g></g><g fill="#000000" fill-opacity="1"><g transform="translate(960.232404, 357.86584)"><g><path d="M 3.078125 0 L 11.546875 0 L 11.546875 -53.886719 L 3.078125 -53.886719 Z M 46.1875 0 L 54.65625 0 L 54.65625 -10.777344 C 54.65625 -15.320312 53.039062 -18.707031 48.1875 -21.554688 C 53.039062 -24.402344 54.65625 -28.175781 54.65625 -34.640625 L 54.65625 -53.886719 L 46.1875 -53.886719 L 46.1875 -34.640625 C 46.1875 -29.328125 43.800781 -25.789062 38.488281 -25.789062 L 16.933594 -25.789062 L 16.933594 -17.320312 L 39.644531 -17.320312 C 43.800781 -17.320312 46.1875 -14.164062 46.1875 -10.777344 Z M 46.1875 0 "/></g></g></g><g fill="#000000" fill-opacity="1"><g transform="translate(1017.964976, 357.86584)"><g><path d="M 11.546875 -45.417969 L 56.964844 -45.417969 L 56.964844 -53.886719 L 11.546875 -53.886719 Z M 16.933594 0 L 56.964844 0 L 56.964844 -8.46875 L 16.933594 -8.46875 C 14.011719 -8.46875 11.546875 -10.855469 11.546875 -13.855469 L 11.546875 -45.417969 L 3.078125 -45.417969 L 3.078125 -13.855469 C 3.078125 -6.160156 9.238281 0 16.933594 0 Z M 16.859375 -22.707031 L 51.574219 -22.707031 L 51.574219 -31.175781 L 16.859375 -31.175781 Z M 16.859375 -22.707031 "/></g></g></g><g fill="#000000" fill-opacity="1"><g transform="translate(1078.006853, 357.86584)"><g><path d="M 48.496094 -8.46875 L 56.964844 -8.46875 L 56.964844 -40.027344 C 56.964844 -47.804688 50.882812 -53.886719 43.109375 -53.886719 L 11.546875 -53.886719 L 11.546875 -45.417969 L 43.109375 -45.417969 C 46.109375 -45.417969 48.496094 -43.03125 48.496094 -40.027344 Z M 3.078125 0 L 48.496094 0 L 48.496094 -8.46875 L 11.546875 -8.46875 L 11.546875 -45.417969 L 3.078125 -45.417969 Z M 3.078125 0 "/></g></g></g></svg>